<svg xmlns="http://www.w3.org/2000/svg" viewBox="0 0 21.25 17"><defs><style>.cls-1{fill:#f0f0f0;}</style></defs><title>tweetSD</title><g id="Layer_2" data-name="Layer 2"><g id="content"><path class="cls-1" d="M20.67.31a8.81,8.81,0,0,1-2.77,1A4.38,4.38,0,0,0,14.71,0a4.3,4.3,0,0,0-4.25,5.27,12.44,12.44,0,0,1-9-4.48A4.22,4.22,0,0,0,.89,2.94,4.27,4.27,0,0,0,2.83,6.52,4.4,4.4,0,0,1,.86,6V6a4.31,4.31,0,0,0,3.5,4.21,4.44,4.44,0,0,1-2,.07,4.36,4.36,0,0,0,4.07,3A8.84,8.84,0,0,1,1,15.13a9.05,9.05,0,0,1-1-.06A12.49,12.49,0,0,0,6.68,17,12.22,12.22,0,0,0,19.09,4.79c0-.19,0-.37,0-.56A8.77,8.77,0,0,0,21.25,2a8.79,8.79,0,0,1-2.5.68A4.31,4.31,0,0,0,20.67.31Z"/></g></g></svg>