<?xml version="1.0" encoding="utf-8"?>
<!-- Generator: Adobe Illustrator 20.1.0, SVG Export Plug-In . SVG Version: 6.00 Build 0)  -->
<svg version="1.1" id="Layer_1" xmlns="http://www.w3.org/2000/svg" xmlns:xlink="http://www.w3.org/1999/xlink" x="0px" y="0px"
	 viewBox="0 0 604 63" style="enable-background:new 0 0 604 63;" xml:space="preserve">
<style type="text/css">
	.st0{fill:#FFFFFF;}
</style>
<title>vl_main_logo</title>
<g>
	<g id="Layer_2">
		<g id="content">
			<g id="visual_law_logo">
				
					<image style="overflow:visible;opacity:0.75;enable-background:new    ;" width="604" height="63" xlink:href="C4C5065C8F91EB03.png" >
				</image>
				<path class="st0" d="M336.3,24.3v-3.8c0-1,0-1.9,0-2.6s0-1.3,0-1.8s0-0.9,0-1.2s0-0.7,0-1c0-0.7,0.1-1.3,0.5-1.9
					c0.3-0.5,0.8-0.8,1.4-0.8c0.3,0,0.6-0.1,1-0.1s0.7,0,0.9,0c0.2,0,0.4,0,0.7-0.1c0.2-0.1,0.3-0.3,0.2-0.5c0-0.1-0.1-0.2-0.2-0.2
					c-0.2-0.1-0.5-0.1-0.8-0.1h-1.7h-1.9h-1.8h-1.3H332h-1.7h-1.9h-1.8c-0.3,0-0.5,0-0.8,0.1c-0.2,0-0.3,0.2-0.3,0.4
					c0,0.1,0.1,0.3,0.2,0.4c0.2,0.1,0.4,0.1,0.6,0.1c0.3,0,0.6,0,0.9,0c0.2,0,0.5,0.1,0.7,0.1c0.4,0.1,0.9,0.2,1.2,0.5
					c0.3,0.2,0.5,0.5,0.6,0.9c0.1,0.5,0.2,0.9,0.2,1.4c0,0.3,0,0.6,0,1s0,0.8,0,1.2s0,1.1,0,1.8s0,1.6,0,2.6v12.4c0,1.5,0,2.9,0,4.2
					s0,2.5-0.1,3.5s-0.1,1.9-0.2,2.6c-0.1,0.4-0.1,0.9-0.2,1.3c-0.1,0.3-0.2,0.7-0.4,0.9c-0.2,0.2-0.5,0.4-0.8,0.5
					c-0.2,0-0.5,0.1-0.8,0.1c-0.3,0-0.7,0.1-1,0.1c-0.2,0-0.4,0-0.6,0.1c-0.1,0.1-0.2,0.2-0.2,0.3c0,0.2,0.1,0.3,0.2,0.4
					c0.2,0.1,0.5,0.1,0.7,0.1h1.6c0.6,0,1.2,0,1.7,0s1.1,0,1.6,0h1.2l2-0.1h2l2.1,0.1l3.6,0.1c1.3,0,2.9,0.1,4.6,0.1
					c0.5,0,1,0,1.5-0.1c0.3,0,0.6-0.1,0.9-0.2c0.2-0.1,0.4-0.2,0.5-0.4c0.1-0.2,0.2-0.4,0.2-0.7c0.1-0.3,0.1-0.7,0.2-1.1
					s0.1-0.9,0.2-1.4s0.1-0.9,0.2-1.4s0.1-0.8,0.1-1.2s0-0.5,0-0.7c0-0.2,0-0.4-0.1-0.6c-0.1-0.1-0.2-0.2-0.3-0.2
					c-0.2,0-0.3,0.1-0.4,0.2c-0.1,0.2-0.1,0.3-0.1,0.5c0,0.3-0.1,0.7-0.2,1c-0.1,0.4-0.3,0.7-0.5,1.1c-0.2,0.3-0.3,0.6-0.6,0.8
					c-0.4,0.4-0.9,0.8-1.5,1c-0.6,0.2-1.3,0.3-1.9,0.4c-0.7,0-1.5,0.1-2.4,0.1c-1.3,0-2.3,0-3-0.1c-0.6,0-1.2-0.2-1.8-0.4
					c-0.4-0.1-0.8-0.3-1.1-0.6c-0.4-0.5-0.7-1.1-0.7-1.7c-0.2-1.1-0.3-2.3-0.3-3.5c0-1.5,0-3.2,0-5.3L336.3,24.3L336.3,24.3z
					 M194.1,31.5c0,2,0.2,4,0.6,6c0.3,1.5,0.8,2.9,1.5,4.2c0.6,1,1.3,2,2.2,2.8c0.9,0.8,1.8,1.4,2.8,1.9c1,0.4,2,0.8,3,1
					c0.9,0.2,1.8,0.3,2.8,0.4c0.9,0.1,1.6,0.1,2.3,0.1c1.1,0,2.2-0.1,3.3-0.2c1.2-0.2,2.3-0.5,3.4-1c1.3-0.6,2.4-1.3,3.5-2.2
					c1-0.8,1.8-1.9,2.5-3c0.6-1.1,1.1-2.4,1.4-3.6c0.3-1.3,0.5-2.7,0.6-4c0.1-1.4,0.1-2.7,0.1-4.1v-9c0-1,0-1.9,0-2.6s0-1.3,0-1.8
					s0-0.9,0-1.2s0-0.7,0-1c0-0.7,0.1-1.3,0.4-1.9c0.3-0.5,0.8-0.8,1.4-0.8l0.7-0.1c0.2,0,0.5,0,0.7,0c0.2,0,0.4,0,0.7-0.1
					c0.1-0.1,0.2-0.2,0.2-0.4c0-0.2-0.1-0.3-0.2-0.4c-0.2-0.1-0.5-0.1-0.8-0.1h-1.6h-1.7h-1.4h-0.9h-0.6h-1.4h-1.8H216
					c-0.3,0-0.5,0-0.8,0.1c-0.2,0-0.3,0.2-0.3,0.4c0,0.1,0.1,0.3,0.2,0.4c0.2,0.1,0.4,0.1,0.6,0.1c0.2,0,0.4,0,0.6,0h0.6
					c0.2,0,0.3,0,0.5,0.1c0.4,0.1,0.9,0.2,1.2,0.5c0.3,0.2,0.5,0.5,0.6,0.9c0.1,0.5,0.2,0.9,0.2,1.4c0,0.3,0,0.6,0,1s0,0.8,0,1.2
					s0,1.1,0,1.8s0,1.6,0,2.6v9.9c0,1.3,0,2.5-0.1,3.6c0,1.1-0.2,2.2-0.3,3.3c-0.2,1-0.5,1.9-0.9,2.9c-0.3,0.8-0.8,1.6-1.4,2.3
					c-0.6,0.6-1.3,1.2-2.1,1.6c-0.7,0.4-1.5,0.7-2.3,0.8c-0.7,0.2-1.5,0.3-2.3,0.2c-0.6,0-1.2,0-1.8-0.1c-0.7-0.1-1.4-0.3-2.1-0.6
					c-1.5-0.6-2.8-1.7-3.8-3c-0.5-0.7-0.9-1.5-1.2-2.4c-0.4-1.1-0.6-2.2-0.8-3.3c-0.2-1.5-0.3-3.1-0.3-4.6V20.5c0-1,0-1.9,0-2.6
					s0-1.3,0-1.8s0-0.9,0-1.2s0-0.7,0-1c0-0.7,0.1-1.3,0.4-1.9c0.3-0.5,0.8-0.8,1.4-0.8l0.7-0.1c0.2,0,0.5,0,0.7,0
					c0.2,0,0.4,0,0.6-0.1c0.1-0.1,0.2-0.2,0.2-0.4c0-0.2-0.1-0.3-0.3-0.4c-0.3-0.1-0.5-0.1-0.8-0.1h-1.5H200h-1.6h-1.2
					c-0.5,0-1.1,0-1.9,0l-2.5-0.1c-0.9,0-1.8,0-2.7,0c-0.3,0-0.6,0-0.8,0.1c-0.2,0-0.3,0.2-0.3,0.4c0,0.1,0.1,0.3,0.2,0.4
					c0.2,0.1,0.5,0.1,0.8,0.1c0.4,0,0.7,0,1.1,0c0.3,0,0.6,0.1,0.8,0.1c0.4,0.1,0.9,0.2,1.2,0.5c0.3,0.2,0.5,0.5,0.6,0.9
					c0.1,0.5,0.2,1,0.2,1.5c0,0.3,0,0.6,0,1s0,0.8,0,1.2s0,1.1,0,1.8s0,1.6,0,2.6L194.1,31.5L194.1,31.5z M142.8,47.8
					c0.9,0,1.8-0.1,2.6-0.2c0.9-0.1,1.8-0.3,2.6-0.6c0.9-0.3,1.7-0.7,2.5-1.2c1.1-0.7,2-1.6,2.8-2.6c0.7-0.9,1.1-1.9,1.4-3
					c0.3-1,0.4-2,0.4-3c0-1.1-0.1-2.2-0.4-3.3c-0.3-1.1-0.8-2.1-1.4-3c-0.7-1.1-1.5-2.1-2.5-3c-1.2-1.1-2.4-2.2-3.8-3.2l-1.4-1
					c-1.1-0.8-2.2-1.7-3.1-2.7c-0.7-0.6-1.2-1.4-1.6-2.2c-0.3-0.7-0.4-1.4-0.4-2.1c0-0.9,0.2-1.8,0.7-2.6c0.5-0.8,1.2-1.4,2-1.8
					c1-0.4,2-0.7,3.1-0.6c0.9,0,1.8,0.1,2.6,0.4c0.6,0.2,1.2,0.5,1.7,0.9c0.4,0.3,0.7,0.6,1,1c0.3,0.4,0.6,0.8,0.8,1.3
					c0.2,0.4,0.3,0.8,0.4,1.2c0.1,0.2,0.1,0.5,0.1,0.8c0,0.2,0,0.5,0.1,0.7c0.1,0.1,0.2,0.2,0.4,0.2c0.2,0,0.3-0.1,0.4-0.3
					c0.1-0.4,0.1-0.7,0.1-1.1c0-1.3,0-2.3,0-3.1s0-1.4,0.1-1.8c0-0.4,0-0.8,0-1c0-0.1-0.1-0.3-0.2-0.4c-0.2-0.1-0.3-0.2-0.5-0.2
					c-0.8-0.2-1.6-0.3-2.5-0.4c-1.3-0.2-2.7-0.3-4-0.3c-1.6,0-3.1,0.2-4.6,0.7c-1.3,0.4-2.5,1.1-3.6,1.9c-0.9,0.8-1.7,1.8-2.2,2.9
					c-0.5,1.2-0.8,2.4-0.8,3.7c0,1.3,0.2,2.6,0.7,3.8c0.5,1.4,1.3,2.6,2.3,3.8c1.3,1.5,2.7,2.8,4.3,4l2.2,1.8
					c0.9,0.7,1.7,1.4,2.5,2.2c0.6,0.6,1.1,1.3,1.5,2c0.3,0.6,0.5,1.2,0.7,1.8c0.1,0.6,0.2,1.2,0.2,1.8c0,0.7-0.1,1.4-0.4,2
					c-0.3,0.7-0.7,1.3-1.2,1.8c-0.6,0.6-1.3,1-2,1.3c-0.9,0.3-1.9,0.5-2.9,0.5c-1,0-2-0.1-2.9-0.5c-0.9-0.3-1.8-0.9-2.5-1.6
					c-0.8-0.8-1.3-1.8-1.6-2.9c-0.1-0.4-0.2-0.9-0.3-1.3c-0.1-0.4-0.1-0.8-0.1-1.2c0-0.2,0-0.4-0.1-0.6c-0.1-0.2-0.2-0.3-0.4-0.3
					c-0.2,0-0.4,0.2-0.4,0.4c-0.1,0.3-0.2,0.6-0.2,0.9c0,0.2,0,0.5-0.1,1s-0.1,1-0.1,1.5s-0.1,1.2-0.1,1.9s0,1.3,0,2
					c0,0.3,0,0.6,0.1,0.8c0,0.2,0.1,0.4,0.3,0.5c0.2,0.1,0.4,0.3,0.6,0.3c1.1,0.5,2.2,0.8,3.3,1c1.3,0.2,2.6,0.3,3.9,0.3L142.8,47.8
					z M86.9,32.9c0,1.6,0,3.1,0,4.4s0,2.6-0.1,3.6s-0.1,1.9-0.2,2.6c0,0.6-0.2,1.1-0.4,1.7c-0.2,0.4-0.6,0.7-1,0.8
					c-0.2,0-0.5,0.1-0.8,0.1c-0.3,0-0.7,0.1-1,0.1c-0.2,0-0.4,0-0.6,0.1c-0.1,0.1-0.2,0.2-0.2,0.3c0,0.2,0.1,0.3,0.2,0.4
					c0.2,0.1,0.5,0.1,0.7,0.1h1.6h1.8h1.6h1.2h1.8l2.7,0.1c1,0,2,0,3.1,0c0.2,0,0.5,0,0.7-0.1c0.2-0.1,0.3-0.2,0.3-0.4
					c0-0.1-0.1-0.2-0.2-0.3c-0.2-0.1-0.4-0.1-0.6-0.1h-0.8l-0.9-0.1l-0.8-0.1c-0.4-0.1-0.8-0.2-1.1-0.5c-0.3-0.2-0.5-0.5-0.6-0.8
					c-0.1-0.4-0.2-0.8-0.2-1.2C93.1,43,93.1,42.1,93,41s0-2.3,0-3.6s0-2.8,0-4.4V20.5c0-1,0-1.9,0-2.6s0-1.3,0-1.8s0-0.9,0-1.2
					s0-0.7,0-1c0-0.7,0.2-1.3,0.5-1.9c0.3-0.5,0.8-0.8,1.4-0.8l0.8-0.1c0.2,0,0.5,0,0.7,0c0.2,0,0.4,0,0.6-0.1
					c0.1-0.1,0.2-0.2,0.2-0.4c0-0.1-0.1-0.2-0.3-0.3c-0.2-0.1-0.5-0.1-0.8-0.1h-1.5h-1.7h-1.6h-1.2h-1.3h-1.7h-1.8h-1.6
					c-0.3,0-0.6,0-0.9,0.1c-0.2,0.1-0.3,0.2-0.3,0.3c0,0.2,0.1,0.3,0.2,0.4c0.2,0.1,0.4,0.1,0.6,0.1c0.3,0,0.6,0,0.9,0
					c0.3,0,0.6,0.1,0.9,0.1c0.5,0.1,0.9,0.4,1.2,0.8c0.3,0.6,0.5,1.3,0.5,2c0,0.3,0,0.6,0,1s0,0.8,0,1.2s0,1.1,0,1.8s0,1.6,0,2.6
					L86.9,32.9L86.9,32.9z M30.9,44.8c0.3,0.8,0.6,1.4,0.8,1.8c0.1,0.3,0.3,0.6,0.5,0.9c0.1,0.2,0.3,0.3,0.5,0.3
					c0.2,0,0.5-0.1,0.6-0.3c0.3-0.3,0.5-0.7,0.7-1.1c0.2-0.5,0.6-1.3,1-2.2l1.5-3.4l2.2-5.1l2.8-6.5c0.5-1.2,1-2.3,1.4-3.2
					s0.8-1.9,1.2-2.7l1.1-2.4c0.3-0.8,0.7-1.5,1-2.4s0.8-1.6,1.2-2.6s0.8-1.8,1.1-2.4c0.2-0.5,0.5-0.9,0.9-1.3c0.4-0.5,1-0.9,1.6-1
					c0.3-0.1,0.6-0.1,0.8-0.1c0.2,0,0.4,0,0.6,0c0.2,0,0.4,0,0.6-0.1c0.1-0.1,0.2-0.2,0.2-0.4c0-0.2-0.1-0.3-0.3-0.4
					c-0.2-0.1-0.5-0.1-0.8-0.1H51h-1.3h-1.2h-0.9h-1.1l-1.8-0.1c-0.7,0-1.5,0-2.3,0c-0.3,0-0.7,0-1,0.1c-0.2,0-0.3,0.2-0.3,0.4
					c0,0.2,0.1,0.3,0.2,0.3C41.6,11,41.8,11,42,11c0.3,0,0.7,0,1,0c0.3,0,0.7,0.1,1,0.2c0.2,0.1,0.4,0.2,0.5,0.4
					c0.1,0.2,0.2,0.4,0.2,0.6c0,0.3-0.1,0.6-0.1,0.8c-0.1,0.3-0.2,0.7-0.3,1c-0.2,0.5-0.4,1.2-0.8,2.1l-1.3,3.2l-1.6,4l-1.7,4.3
					l-1.7,4.2c-0.5,1.4-1,2.6-1.5,3.7s-0.8,2.1-1.1,2.9h-0.2l-8.5-22.2c-0.3-0.9-0.6-1.6-0.8-2.3c-0.2-0.5-0.3-1-0.3-1.5
					c0-0.2,0-0.4,0.1-0.6c0.1-0.2,0.2-0.3,0.4-0.4c0.2-0.2,0.5-0.3,0.8-0.3c0.4,0,0.7-0.1,1.1-0.1c0.2,0,0.4,0,0.5-0.1
					c0.1-0.1,0.2-0.2,0.2-0.4c0-0.2-0.1-0.3-0.3-0.4c-0.3-0.1-0.5-0.1-0.8-0.1c-0.8,0-1.6,0-2.4,0l-2.1,0.1c-0.6,0-1.1,0-1.6,0
					c-0.6,0-1.3,0-2,0l-2.5-0.1c-0.9,0-1.7,0-2.6,0c-0.3,0-0.6,0-0.9,0.1c-0.2,0.1-0.4,0.2-0.4,0.4c0,0.1,0,0.2,0.1,0.3
					C12.7,11,12.8,11,13,11c0.3,0,0.5,0,0.8,0c0.4,0,0.7,0.1,1.1,0.2c0.5,0.1,1,0.3,1.5,0.6c0.5,0.3,0.8,0.6,1.1,1.1
					c0.4,0.6,0.8,1.3,1.1,2.1L30.9,44.8L30.9,44.8z M550.8,46c0.1,0.5,0.3,0.9,0.5,1.4c0.1,0.2,0.3,0.4,0.6,0.4
					c0.2,0,0.4-0.1,0.5-0.2c0.2-0.2,0.4-0.5,0.5-0.8c0.2-0.4,0.4-0.9,0.7-1.6s0.7-1.5,1.1-2.6s1-2.3,1.5-3.7s1.1-2.8,1.7-4.3
					l1.7-4.4c0.6-1.5,1.1-2.8,1.5-4.1s0.9-2.3,1.2-3.2l0.7-1.9h0.1l10.2,24.5c0.2,0.6,0.5,1.3,0.8,1.9c0.2,0.4,0.4,0.5,0.7,0.5
					c0.2,0,0.4-0.1,0.5-0.2c0.2-0.2,0.3-0.5,0.4-0.7c0.1-0.3,0.3-0.8,0.5-1.3c0.3-1.1,0.7-2.3,1.2-3.6l1.4-4.3l1.6-4.7
					c0.5-1.6,1.1-3.2,1.6-4.8s1-3.1,1.5-4.5s1-2.8,1.4-4s0.8-2.3,1.1-3.2s0.6-1.8,0.9-2.5c0.2-0.6,0.5-1.2,0.8-1.8
					c0.2-0.4,0.6-0.7,1-0.9c0.3-0.1,0.6-0.2,0.9-0.2c0.3,0,0.6,0,0.8,0c0.2,0,0.4,0,0.5-0.1c0.1-0.1,0.2-0.2,0.2-0.4
					c0-0.1-0.1-0.3-0.2-0.3c-0.2-0.1-0.4-0.1-0.6-0.1h-1.3H588h-1h-0.5h-0.9l-1.8-0.1c-0.7,0-1.5,0-2.4,0c-0.3,0-0.6,0-0.8,0.1
					c-0.2,0-0.3,0.2-0.3,0.4c0,0.1,0.1,0.3,0.2,0.3c0.2,0.1,0.4,0.1,0.6,0.1c0.5,0,1,0,1.5,0.2c0.3,0.1,0.5,0.3,0.7,0.5
					c0.1,0.2,0.2,0.5,0.2,0.7c0,0.4,0,0.8-0.1,1.3c-0.1,0.5-0.2,1.1-0.4,1.6l-1,3.4l-1.2,4.1c-0.4,1.5-0.9,2.9-1.3,4.4l-1.2,4.2
					c-0.4,1.3-0.7,2.5-1,3.5s-0.5,1.8-0.7,2.4h-0.2l-10.2-24.6c-0.2-0.5-0.4-1-0.5-1.3c-0.1-0.3-0.2-0.5-0.4-0.8
					c-0.1-0.2-0.3-0.2-0.5-0.2c-0.2,0-0.4,0.1-0.6,0.4c-0.3,0.4-0.5,0.9-0.7,1.4L554,37.6h-0.2c-0.1-0.4-0.3-1-0.6-1.8
					s-0.6-1.8-0.9-2.9s-0.7-2.3-1.1-3.6s-0.8-2.5-1.2-3.8l-1.1-3.6c-0.3-1.1-0.6-2.2-0.9-3s-0.4-1.6-0.6-2c-0.3-1.1-0.5-2-0.8-2.8
					c-0.2-0.5-0.3-1.1-0.3-1.6c0-0.2,0-0.5,0.1-0.7c0.1-0.2,0.2-0.3,0.4-0.4c0.2-0.1,0.4-0.2,0.6-0.2c0.2,0,0.4,0,0.6,0
					c0.2,0,0.4,0,0.6-0.1c0.2-0.1,0.3-0.2,0.2-0.4c0-0.3-0.3-0.4-1-0.4c-1,0-1.8,0-2.6,0s-1.4,0-1.9,0.1h-1h-0.7h-1.3h-1.7H537
					c-0.3,0-0.5,0-0.8,0.1c-0.2,0-0.3,0.2-0.3,0.4c0,0.2,0.1,0.3,0.2,0.4c0.2,0.1,0.4,0.1,0.6,0.1c0.2,0,0.4,0,0.6,0
					c0.2,0,0.5,0.1,0.7,0.1c0.2,0.1,0.4,0.1,0.6,0.3c0.4,0.3,0.7,0.8,1,1.2c0.3,0.7,0.6,1.5,0.9,2.2L550.8,46z M429.6,24.3v-3.8
					c0-1,0-1.9,0-2.6s0-1.3,0-1.8s0-0.9,0-1.2s0-0.7,0-1c0-0.7,0.1-1.3,0.5-1.9c0.3-0.5,0.8-0.8,1.4-0.8c0.3,0,0.6-0.1,1-0.1
					s0.7,0,0.9,0c0.2,0,0.4,0,0.7-0.1c0.2-0.1,0.3-0.3,0.2-0.5c0-0.1-0.1-0.2-0.2-0.2c-0.2-0.1-0.5-0.1-0.8-0.1h-1.7h-1.9h-1.8h-1.3
					h-1.3h-1.7h-1.9h-1.8c-0.3,0-0.6,0-0.8,0.1c-0.2,0-0.3,0.2-0.3,0.4c0,0.1,0.1,0.3,0.2,0.4c0.2,0.1,0.4,0.1,0.6,0.1
					c0.3,0,0.6,0,0.9,0c0.2,0,0.5,0.1,0.7,0.1c0.4,0.1,0.9,0.2,1.2,0.5c0.3,0.2,0.5,0.5,0.6,0.9c0.1,0.5,0.2,0.9,0.2,1.4
					c0,0.3,0,0.6,0,1s0,0.8,0,1.2s0,1.1,0,1.8s0,1.6,0,2.6v12.4c0,1.5,0,2.9,0,4.2s0,2.5-0.1,3.5s-0.1,1.9-0.2,2.6
					c-0.1,0.4-0.1,0.9-0.2,1.3c-0.1,0.3-0.2,0.7-0.4,0.9c-0.2,0.2-0.5,0.4-0.8,0.5c-0.2,0-0.5,0.1-0.8,0.1c-0.3,0-0.7,0.1-1,0.1
					c-0.2,0-0.4,0-0.6,0.1c-0.1,0.1-0.2,0.2-0.2,0.3c0,0.2,0.1,0.3,0.2,0.4c0.2,0.1,0.5,0.1,0.7,0.1h1.6c0.6,0,1.2,0,1.8,0
					s1.1,0,1.6,0h1.2h2h1.9l2.1,0.1l3.6,0.1c1.3,0,2.9,0.1,4.6,0.1c0.5,0,1,0,1.5-0.1c0.3,0,0.6-0.1,0.9-0.2
					c0.2-0.1,0.4-0.2,0.5-0.4c0.1-0.2,0.2-0.4,0.2-0.7c0.1-0.3,0.2-0.7,0.2-1.1s0.1-0.9,0.2-1.4s0.1-0.9,0.2-1.4s0.1-0.8,0.1-1.2
					s0-0.5,0-0.7c0-0.2,0-0.4-0.1-0.6c-0.1-0.1-0.2-0.2-0.3-0.2c-0.2,0-0.3,0.1-0.4,0.2c-0.1,0.2-0.1,0.3-0.1,0.5
					c0,0.3-0.1,0.7-0.2,1c-0.1,0.4-0.3,0.7-0.5,1.1c-0.2,0.3-0.3,0.6-0.6,0.8c-0.4,0.4-0.9,0.8-1.5,1c-0.6,0.2-1.3,0.3-1.9,0.4
					c-0.7,0-1.5,0.1-2.4,0.1c-1.3,0-2.3,0-3-0.1c-0.6,0-1.2-0.2-1.8-0.4c-0.4-0.1-0.8-0.3-1.1-0.6c-0.4-0.5-0.7-1.1-0.7-1.7
					c-0.2-1.1-0.3-2.3-0.3-3.5c0-1.5,0-3.2,0-5.3L429.6,24.3L429.6,24.3z M281.5,38.8l2.4,6.2c0.1,0.2,0.1,0.5,0,0.8
					c-0.1,0.2-0.2,0.3-0.4,0.4c-0.2,0-0.4,0.1-0.5,0.1c-0.1,0.1-0.2,0.2-0.2,0.3c0,0.2,0.1,0.3,0.4,0.3c0.4,0.1,0.7,0.1,1.1,0.1
					c1.3,0,2.6,0.1,3.7,0.1h3.2h2.3c0.6,0,1.1,0,1.4,0c0.2,0,0.5-0.1,0.7-0.2c0.1-0.1,0.2-0.2,0.2-0.3c0-0.1,0-0.3-0.2-0.3
					c-0.1-0.1-0.3-0.1-0.5-0.1c-0.3,0-0.6,0-1,0c-0.4,0-0.7-0.1-1.1-0.2c-0.3-0.1-0.6-0.2-0.9-0.3c-0.4-0.2-0.7-0.5-1-0.8
					c-0.4-0.5-0.8-1-1.1-1.5c-0.5-0.8-0.9-1.7-1.3-2.6c-0.4-0.9-0.9-2-1.4-3.3s-1.1-2.6-1.7-4.1c-0.6-1.5-1.2-3-1.9-4.6l-1.9-4.8
					c-0.6-1.6-1.2-3.1-1.8-4.5l-1.6-4c-0.5-1.2-0.9-2.2-1.2-3s-0.6-1.4-0.7-1.8c-0.2-0.4-0.4-0.8-0.6-1.2c-0.1-0.2-0.4-0.3-0.6-0.4
					c-0.2,0-0.5,0.1-0.6,0.4c-0.3,0.5-0.5,1-0.7,1.5l-12.3,30.7c-0.3,0.7-0.6,1.5-1,2.2c-0.3,0.6-0.8,1.1-1.3,1.5
					c-0.5,0.4-1.2,0.7-1.9,0.7l-0.7,0.1c-0.3,0-0.5,0-0.8,0c-0.2,0-0.3,0-0.4,0.1c-0.1,0.1-0.2,0.2-0.1,0.3c0,0.2,0.1,0.3,0.2,0.4
					c0.2,0.1,0.5,0.1,0.7,0.1h1.9L260,47h1.4h0.8c0.5,0,1.1,0,1.7,0l1.8,0.1c0.6,0,1.2,0,1.7,0c0.2,0,0.4,0,0.6-0.1
					c0.1-0.1,0.2-0.2,0.2-0.4c0-0.1,0-0.2-0.1-0.3c-0.2-0.1-0.4-0.1-0.6-0.1h-0.7c-0.6,0.1-1.1-0.1-1.5-0.4
					c-0.3-0.3-0.4-0.7-0.4-1.1c0-0.3,0-0.6,0.1-0.9l0,0c2.4-6.2,7.3-11.1,13.5-13.5C278.3,30.3,281.5,38.8,281.5,38.8z M268,34.8
					v-0.1c0-0.1,0-0.1,0.1-0.2l2.4-6.4l3.2-8.6c0-0.1,0.1-0.2,0.1-0.3c0-0.1,0.1-0.1,0.2-0.1c0.1,0,0.1,0.1,0.2,0.1
					c0,0.1,0.1,0.2,0.1,0.3l2.8,7.6l0,0l1.1,3.1c-3.8,0.1-7.4,1.7-10,4.4L268,34.8L268,34.8z M498.3,38.8l2.4,6.2
					c0.1,0.2,0.1,0.5,0,0.8c-0.1,0.2-0.2,0.3-0.4,0.4c-0.2,0-0.4,0.1-0.5,0.1c-0.1,0.1-0.2,0.2-0.2,0.3c0,0.2,0.1,0.3,0.4,0.3
					c0.4,0.1,0.7,0.1,1.1,0.1c1.3,0,2.6,0.1,3.7,0.1h3.2h2.3c0.6,0,1.1,0,1.4,0c0.2,0,0.5-0.1,0.7-0.2c0.1-0.1,0.2-0.2,0.2-0.3
					c0-0.1,0-0.3-0.2-0.3c-0.1-0.1-0.3-0.1-0.5-0.1c-0.3,0-0.6,0-1,0c-0.4,0-0.7-0.1-1.1-0.2c-0.3-0.1-0.6-0.2-0.9-0.3
					c-0.4-0.2-0.7-0.5-1-0.8c-0.4-0.5-0.8-1-1.1-1.6c-0.5-0.8-0.9-1.7-1.3-2.6c-0.4-0.9-0.9-2-1.4-3.3s-1.1-2.6-1.7-4.1
					c-0.6-1.5-1.2-3-1.9-4.6l-1.9-4.8c-0.6-1.6-1.2-3.1-1.8-4.5l-1.6-4c-0.5-1.2-0.9-2.2-1.2-3s-0.6-1.4-0.7-1.8
					c-0.2-0.4-0.4-0.8-0.6-1.2c-0.1-0.2-0.4-0.3-0.6-0.4c-0.2,0-0.5,0.1-0.6,0.4c-0.3,0.5-0.5,1-0.7,1.5l-12.3,30.7
					c-0.3,0.7-0.6,1.5-1,2.2c-0.3,0.6-0.8,1.1-1.3,1.5c-0.5,0.4-1.2,0.7-1.9,0.7l-0.7,0.1c-0.3,0-0.5,0-0.8,0c-0.2,0-0.3,0-0.4,0.1
					c-0.1,0.1-0.2,0.2-0.1,0.3c0,0.2,0.1,0.3,0.2,0.4c0.2,0.1,0.5,0.1,0.7,0.1h1.9h1.7h1.4h0.8c0.5,0,1.1,0,1.7,0l1.8,0.1
					c0.6,0,1.2,0,1.7,0c0.2,0,0.4,0,0.6-0.1c0.1-0.1,0.2-0.2,0.2-0.4c0-0.1,0-0.2-0.1-0.3c-0.2-0.1-0.4-0.1-0.6-0.1h-0.7
					c-0.6,0.1-1.1-0.1-1.5-0.4c-0.3-0.3-0.4-0.7-0.4-1.1c0-0.3,0-0.6,0.1-0.9l0,0c2.3-6.2,7.2-11.2,13.5-13.6L498.3,38.8L498.3,38.8
					z M484.9,34.8v-0.1c0-0.1,0-0.1,0.1-0.2l2.4-6.4l3.2-8.6c0-0.1,0.1-0.2,0.1-0.3c0-0.1,0.1-0.1,0.2-0.1c0.1,0,0.1,0.1,0.2,0.1
					c0,0.1,0.1,0.2,0.1,0.3l2.9,7.6l0,0l1.1,3.1c-3.8,0.1-7.4,1.7-10,4.4L484.9,34.8L484.9,34.8z"/>
			</g>
		</g>
	</g>
</g>
</svg>
