<svg xmlns="http://www.w3.org/2000/svg" viewBox="0 0 529.9 34.06"><defs><style>.cls-1{fill:#006da8;}</style></defs><title>innovation</title><g id="Layer_2" data-name="Layer 2"><g id="Layer_11" data-name="Layer 11"><path class="cls-1" d="M0,1.56H6.54V26.9H0Z"/><path class="cls-1" d="M24.39,16.3c0-2.24-1.18-3-3-3A4.53,4.53,0,0,0,17.82,15V26.9H12V8.55h5.85v2.24a8.3,8.3,0,0,1,6.35-2.7c4.18,0,6.08,2.43,6.08,5.81v13H24.39Z"/><path class="cls-1" d="M48,16.3c0-2.24-1.18-3-3-3A4.53,4.53,0,0,0,41.38,15V26.9H35.53V8.55h5.85v2.24a8.3,8.3,0,0,1,6.35-2.7c4.18,0,6.08,2.43,6.08,5.81v13H48Z"/><path class="cls-1" d="M57.87,17.71c0-5.17,3.76-9.61,10-9.61s10,4.45,10,9.61-3.72,9.65-10,9.65S57.87,22.87,57.87,17.71Zm14,0c0-2.43-1.44-4.45-4-4.45s-4,2-4,4.45,1.41,4.48,4,4.48S71.89,20.17,71.89,17.71Z"/><path class="cls-1" d="M79.5,8.55h6.16l4.14,11.63L94,8.55h6.19L92.95,26.9H86.71Z"/><path class="cls-1" d="M113.77,25.08a7.58,7.58,0,0,1-5.7,2.28,6.06,6.06,0,0,1-6.31-6c0-4.45,3.5-5.78,6.31-5.78,2.43,0,4.6.76,5.7,2.13V15.35c0-1.6-1.37-2.66-3.72-2.66a8.19,8.19,0,0,0-5.21,1.94l-2.09-3.69a12.94,12.94,0,0,1,8.32-2.85c4.41,0,8.55,1.63,8.55,7.33V26.9h-5.85Zm0-4.52a4.17,4.17,0,0,0-3.27-1.29c-1.56,0-2.93.68-2.93,2.13s1.37,2.13,2.93,2.13a4.07,4.07,0,0,0,3.27-1.33Z"/><path class="cls-1" d="M126.12,22V13.64h-3V8.55h3v-5h5.81v5h3.72v5.09h-3.72v6.69a1.66,1.66,0,0,0,1.63,1.86,2.28,2.28,0,0,0,1.48-.46l1.14,4.41a6.39,6.39,0,0,1-4.33,1.22C128.13,27.36,126.12,25.49,126.12,22Z"/><path class="cls-1" d="M139.19,3.34a3.34,3.34,0,1,1,6.69,0,3.34,3.34,0,1,1-6.69,0Zm.42,5.21h5.85V26.9h-5.85Z"/><path class="cls-1" d="M149.53,17.71c0-5.17,3.76-9.61,10-9.61s10,4.45,10,9.61-3.72,9.65-10,9.65S149.53,22.87,149.53,17.71Zm14,0c0-2.43-1.44-4.45-4-4.45s-4,2-4,4.45,1.41,4.48,4,4.48S163.55,20.17,163.55,17.71Z"/><path class="cls-1" d="M186.08,16.3c0-2.24-1.18-3-3-3A4.53,4.53,0,0,0,179.51,15V26.9h-5.85V8.55h5.85v2.24a8.3,8.3,0,0,1,6.35-2.7c4.18,0,6.08,2.43,6.08,5.81v13h-5.85Z"/><path class="cls-1" d="M218,6.75V25.34h5.34a1.2,1.2,0,0,1,.8.21.77.77,0,0,1,0,1.12,1.16,1.16,0,0,1-.8.22H211.13a1.16,1.16,0,0,1-.8-.22.77.77,0,0,1,0-1.12,1.2,1.2,0,0,1,.8-.21h5.34V6.75h-5.34a1.19,1.19,0,0,1-.8-.21.78.78,0,0,1,0-1.13,1.2,1.2,0,0,1,.8-.21h12.25a1.2,1.2,0,0,1,.8.21.78.78,0,0,1,0,1.13,1.2,1.2,0,0,1-.8.21Z"/><path class="cls-1" d="M236,10.83v2.36a11.24,11.24,0,0,1,3-2.28,6.79,6.79,0,0,1,3-.63,7,7,0,0,1,3.25.76,5.34,5.34,0,0,1,1.88,1.85,4.77,4.77,0,0,1,.84,2.64v9.82h1.32a1.2,1.2,0,0,1,.8.21.77.77,0,0,1,0,1.12,1.16,1.16,0,0,1-.8.22h-4.17a1.19,1.19,0,0,1-.82-.22.77.77,0,0,1,0-1.12,1.23,1.23,0,0,1,.82-.21h1.3V15.79A3.7,3.7,0,0,0,245.17,13a4.51,4.51,0,0,0-3.23-1.14,5.47,5.47,0,0,0-2.67.62A14.33,14.33,0,0,0,236,15.56v9.78h1.76a1.2,1.2,0,0,1,.8.21.77.77,0,0,1,0,1.12,1.16,1.16,0,0,1-.8.22h-5.08a1.16,1.16,0,0,1-.8-.22.77.77,0,0,1,0-1.12,1.2,1.2,0,0,1,.8-.21h1.76V12.41h-1.32a1.16,1.16,0,0,1-.8-.22.75.75,0,0,1-.24-.58.72.72,0,0,1,.24-.56,1.16,1.16,0,0,1,.8-.22Z"/><path class="cls-1" d="M286,6.75V25.34h10.35v-6.2a1.16,1.16,0,0,1,.22-.8.8.8,0,0,1,1.13,0,1.16,1.16,0,0,1,.22.81V26.9H280.75a1.16,1.16,0,0,1-.8-.22.77.77,0,0,1,0-1.12,1.2,1.2,0,0,1,.8-.21h3.71V6.75h-3.71a1.19,1.19,0,0,1-.8-.21.78.78,0,0,1,0-1.13,1.2,1.2,0,0,1,.8-.21h9a1.2,1.2,0,0,1,.8.21.78.78,0,0,1,0,1.13,1.2,1.2,0,0,1-.8.21Z"/><path class="cls-1" d="M313.39,10.83V25.34h6.12a1.23,1.23,0,0,1,.82.21.77.77,0,0,1,0,1.12,1.2,1.2,0,0,1-.82.22h-13.8a1.16,1.16,0,0,1-.8-.22.77.77,0,0,1,0-1.12,1.2,1.2,0,0,1,.8-.21h6.12V12.41h-4.55a1.2,1.2,0,0,1-.81-.22.71.71,0,0,1-.25-.56.75.75,0,0,1,.24-.58,1.19,1.19,0,0,1,.82-.22Zm-.06-8v4H311v-4Z"/><path class="cls-1" d="M333.19,10.83h8.46a1.16,1.16,0,0,1,.8.22.75.75,0,0,1,.24.58.73.73,0,0,1-.24.56,1.16,1.16,0,0,1-.8.22h-8.46V22.78A2.83,2.83,0,0,0,334.28,25a4.84,4.84,0,0,0,3.18.91,13.75,13.75,0,0,0,3.41-.47,11.56,11.56,0,0,0,2.86-1.07,1.22,1.22,0,0,1,.61-.24.7.7,0,0,1,.52.23.76.76,0,0,1,.22.55.73.73,0,0,1-.24.52A7.76,7.76,0,0,1,342,26.8a14.76,14.76,0,0,1-4.39.71,6.79,6.79,0,0,1-4.34-1.28,4.17,4.17,0,0,1-1.61-3.45V12.41h-2.88a1.16,1.16,0,0,1-.8-.22.75.75,0,0,1-.24-.58.72.72,0,0,1,.24-.56,1.16,1.16,0,0,1,.8-.22h2.88V6.23a1.16,1.16,0,0,1,.22-.8.73.73,0,0,1,.56-.24.75.75,0,0,1,.58.24,1.16,1.16,0,0,1,.22.8Z"/><path class="cls-1" d="M361,10.83V25.34h6.12a1.23,1.23,0,0,1,.82.21.77.77,0,0,1,0,1.12,1.2,1.2,0,0,1-.82.22h-13.8a1.16,1.16,0,0,1-.8-.22.77.77,0,0,1,0-1.12,1.2,1.2,0,0,1,.8-.21h6.12V12.41h-4.55a1.2,1.2,0,0,1-.81-.22.71.71,0,0,1-.25-.56.75.75,0,0,1,.24-.58,1.19,1.19,0,0,1,.82-.22Zm-.06-8v4h-2.3v-4Z"/><path class="cls-1" d="M389.29,13.69V10.83h3.66a1.16,1.16,0,0,1,.8.22.75.75,0,0,1,.24.58.73.73,0,0,1-.24.56,1.16,1.16,0,0,1-.8.22h-2.1V28a5.72,5.72,0,0,1-.67,2.78,6.18,6.18,0,0,1-1.48,1.69,8.1,8.1,0,0,1-1.89,1.24,5.83,5.83,0,0,1-2.28.37h-4.42a1.2,1.2,0,0,1-.8-.21.72.72,0,0,1-.24-.57.75.75,0,0,1,.24-.58,1.16,1.16,0,0,1,.8-.22l4.47,0a4.51,4.51,0,0,0,2.48-.71,5.38,5.38,0,0,0,1.83-2.06,4.27,4.27,0,0,0,.41-2V23.08a7.67,7.67,0,0,1-6.46,3.43,7.47,7.47,0,0,1-5.54-2.38A7.92,7.92,0,0,1,375,18.38a7.89,7.89,0,0,1,2.33-5.73,7.49,7.49,0,0,1,5.54-2.37A7.68,7.68,0,0,1,389.29,13.69Zm0,4.69a6.32,6.32,0,0,0-1.88-4.64,6.27,6.27,0,0,0-9,0,6.35,6.35,0,0,0-1.87,4.63A6.37,6.37,0,0,0,378.42,23a6.26,6.26,0,0,0,9,0A6.35,6.35,0,0,0,389.29,18.38Z"/><path class="cls-1" d="M412.36,26.9V24.65a11.08,11.08,0,0,1-7.25,2.86,6.31,6.31,0,0,1-4.38-1.42,4.5,4.5,0,0,1-1.58-3.48,5,5,0,0,1,2.08-4A9.43,9.43,0,0,1,407.3,17a21.44,21.44,0,0,1,2.34.14q1.26.14,2.73.44V15a2.79,2.79,0,0,0-1.19-2.23,5.65,5.65,0,0,0-3.56-.95,18,18,0,0,0-5.1,1.06,3.54,3.54,0,0,1-.76.19.68.68,0,0,1-.51-.22.77.77,0,0,1-.21-.56.68.68,0,0,1,.19-.5,6.37,6.37,0,0,1,2.1-.76,18.52,18.52,0,0,1,4.38-.78,6.73,6.73,0,0,1,4.6,1.46A4.32,4.32,0,0,1,413.94,15V25.34H416a1.23,1.23,0,0,1,.82.21.77.77,0,0,1,0,1.12,1.2,1.2,0,0,1-.82.22Zm0-7.76a14.87,14.87,0,0,0-2.32-.46,21.52,21.52,0,0,0-2.58-.15A8.54,8.54,0,0,0,402.16,20a3.21,3.21,0,0,0-1.45,2.62,3,3,0,0,0,1.1,2.38A4.76,4.76,0,0,0,405,26a8.8,8.8,0,0,0,3.76-.81,13.53,13.53,0,0,0,3.57-2.57Z"/><path class="cls-1" d="M428.51,10.83H437a1.16,1.16,0,0,1,.8.22.75.75,0,0,1,.24.58.73.73,0,0,1-.24.56,1.16,1.16,0,0,1-.8.22h-8.46V22.78A2.83,2.83,0,0,0,429.6,25a4.84,4.84,0,0,0,3.18.91,13.75,13.75,0,0,0,3.41-.47A11.56,11.56,0,0,0,439,24.41a1.22,1.22,0,0,1,.61-.24.7.7,0,0,1,.52.23.76.76,0,0,1,.22.55.73.73,0,0,1-.24.52,7.76,7.76,0,0,1-2.88,1.33,14.76,14.76,0,0,1-4.39.71,6.79,6.79,0,0,1-4.34-1.28,4.17,4.17,0,0,1-1.61-3.45V12.41h-2.88a1.16,1.16,0,0,1-.8-.22.75.75,0,0,1-.24-.58.72.72,0,0,1,.24-.56,1.16,1.16,0,0,1,.8-.22h2.88V6.23a1.16,1.16,0,0,1,.22-.8.73.73,0,0,1,.56-.24.75.75,0,0,1,.58.24,1.16,1.16,0,0,1,.22.8Z"/><path class="cls-1" d="M456.37,10.83V25.34h6.12a1.23,1.23,0,0,1,.82.21.77.77,0,0,1,0,1.12,1.2,1.2,0,0,1-.82.22h-13.8a1.16,1.16,0,0,1-.8-.22.77.77,0,0,1,0-1.12,1.2,1.2,0,0,1,.8-.21h6.12V12.41h-4.55a1.2,1.2,0,0,1-.81-.22.71.71,0,0,1-.25-.56.75.75,0,0,1,.24-.58,1.19,1.19,0,0,1,.82-.22Zm-.06-8v4H454v-4Z"/><path class="cls-1" d="M488.08,18.9A8.25,8.25,0,0,1,485.53,25a8.78,8.78,0,0,1-12.33,0,8.27,8.27,0,0,1-2.54-6.08,8.29,8.29,0,0,1,2.54-6.1,8.78,8.78,0,0,1,12.33,0A8.27,8.27,0,0,1,488.08,18.9Zm-1.58,0a6.76,6.76,0,0,0-2.09-5,7.23,7.23,0,0,0-10.11,0,7,7,0,0,0,0,10,7.2,7.2,0,0,0,10.11,0A6.76,6.76,0,0,0,486.5,18.9Z"/><path class="cls-1" d="M498.16,10.83v2.36a11.24,11.24,0,0,1,3-2.28,6.79,6.79,0,0,1,3-.63,7,7,0,0,1,3.25.76,5.34,5.34,0,0,1,1.88,1.85,4.77,4.77,0,0,1,.84,2.64v9.82h1.32a1.2,1.2,0,0,1,.8.21.77.77,0,0,1,0,1.12,1.16,1.16,0,0,1-.8.22H507.2a1.19,1.19,0,0,1-.82-.22.77.77,0,0,1,0-1.12,1.23,1.23,0,0,1,.82-.21h1.3V15.79A3.7,3.7,0,0,0,507.29,13a4.51,4.51,0,0,0-3.23-1.14,5.47,5.47,0,0,0-2.67.62,14.33,14.33,0,0,0-3.23,3.09v9.78h1.76a1.2,1.2,0,0,1,.8.21.77.77,0,0,1,0,1.12,1.16,1.16,0,0,1-.8.22h-5.08a1.16,1.16,0,0,1-.8-.22.77.77,0,0,1,0-1.12,1.2,1.2,0,0,1,.8-.21h1.76V12.41h-1.32a1.16,1.16,0,0,1-.8-.22.75.75,0,0,1-.24-.58.72.72,0,0,1,.24-.56,1.16,1.16,0,0,1,.8-.22Z"/><path class="cls-1" d="M526.71,22.43h.67a2.45,2.45,0,0,1,1.78.73,2.51,2.51,0,0,1,0,3.57,2.48,2.48,0,0,1-1.77.72h-.67a2.45,2.45,0,0,1-1.78-.73,2.51,2.51,0,0,1,0-3.57A2.47,2.47,0,0,1,526.71,22.43Z"/></g></g></svg>