<svg xmlns="http://www.w3.org/2000/svg" viewBox="0 0 579 38.78"><defs><style>.cls-1{fill:#006da8;}</style></defs><title>navLogo</title><g id="Layer_2" data-name="Layer 2"><g id="Menu"><g id="visual_law_logo" data-name="visual law logo"><path class="cls-1" d="M323.88,15.3V11.51c0-1,0-1.92,0-2.63s0-1.3,0-1.77,0-.88,0-1.22,0-.66,0-1A4.26,4.26,0,0,1,324.42,3a1.86,1.86,0,0,1,1.36-.84c.3,0,.63-.09,1-.11s.66,0,.94,0a1.91,1.91,0,0,0,.66-.09.36.36,0,0,0,.22-.35.36.36,0,0,0-.26-.35,2.3,2.3,0,0,0-.77-.09l-1.68,0-1.92,0-1.79,0-1.26,0-1.28,0-1.7,0-1.88,0-1.83,0a2.35,2.35,0,0,0-.81.09.35.35,0,0,0-.26.35.36.36,0,0,0,.21.35,1.75,1.75,0,0,0,.62.09c.32,0,.62,0,.9,0a4.78,4.78,0,0,1,.72.11,3,3,0,0,1,1.24.51,1.85,1.85,0,0,1,.64.9,5.15,5.15,0,0,1,.23,1.39c0,.3,0,.63,0,1s0,.75,0,1.22,0,1.07,0,1.77,0,1.59,0,2.63V23.9c0,1.51,0,2.92,0,4.25s0,2.5-.07,3.55-.09,1.92-.17,2.62a9.8,9.8,0,0,1-.24,1.28,2.56,2.56,0,0,1-.42.94,1.2,1.2,0,0,1-.76.47c-.22,0-.47.1-.77.14a9,9,0,0,1-1,.06,1.26,1.26,0,0,0-.61.11.31.31,0,0,0-.17.29.39.39,0,0,0,.25.38,1.84,1.84,0,0,0,.73.11l1.63,0c.6,0,1.17,0,1.74,0s1.14,0,1.63,0h1.16l1.95,0,1.94,0,2.08.08,3.64.09c1.34,0,2.89.06,4.63.06a15.17,15.17,0,0,0,1.52-.06,2.49,2.49,0,0,0,.86-.2,1,1,0,0,0,.46-.4,2.59,2.59,0,0,0,.24-.66c.08-.29.15-.65.23-1.08s.14-.88.2-1.36.12-.94.16-1.39.08-.82.11-1.15,0-.54,0-.65a1.8,1.8,0,0,0-.07-.64.31.31,0,0,0-.33-.2.43.43,0,0,0-.4.2,1.28,1.28,0,0,0-.14.53,4.58,4.58,0,0,1-.24,1,6.84,6.84,0,0,1-.46,1.06,4.18,4.18,0,0,1-.57.84,3.59,3.59,0,0,1-1.45.95,7,7,0,0,1-1.91.36c-.71,0-1.5.07-2.36.07-1.26,0-2.27,0-3-.11A7.85,7.85,0,0,1,326,35a3,3,0,0,1-1.06-.6,3,3,0,0,1-.73-1.73,25.15,25.15,0,0,1-.26-3.47q0-2.19,0-5.32V15.3Zm-142.2,7.14a27.66,27.66,0,0,0,.58,6,14.69,14.69,0,0,0,1.54,4.16A10.94,10.94,0,0,0,186,35.4a12,12,0,0,0,2.84,1.89,14.36,14.36,0,0,0,3,1,18,18,0,0,0,2.77.41c.87.06,1.64.08,2.29.07a19.88,19.88,0,0,0,3.28-.25,14.07,14.07,0,0,0,3.42-1,14.39,14.39,0,0,0,3.47-2.24,11,11,0,0,0,2.46-3,14.82,14.82,0,0,0,1.4-3.62,24.52,24.52,0,0,0,.64-4c.11-1.36.15-2.73.15-4.09v-9c0-1,0-1.92,0-2.63s0-1.3,0-1.77,0-.88,0-1.22,0-.66,0-1A4.26,4.26,0,0,1,212.26,3a1.86,1.86,0,0,1,1.36-.84l.73-.11A5.8,5.8,0,0,1,215,2a1.91,1.91,0,0,0,.66-.09.36.36,0,0,0,.22-.35.35.35,0,0,0-.25-.35,2.36,2.36,0,0,0-.77-.09l-1.59,0-1.7,0-1.43,0-.86,0-.55,0-1.35,0-1.81,0-1.92,0a2.1,2.1,0,0,0-.77.09.36.36,0,0,0-.26.35.36.36,0,0,0,.21.35,1.75,1.75,0,0,0,.62.09c.19,0,.39,0,.61,0l.64,0a3.1,3.1,0,0,1,.51.08,3,3,0,0,1,1.24.51,1.8,1.8,0,0,1,.64.9,5.16,5.16,0,0,1,.23,1.39c0,.3,0,.63,0,1s0,.75,0,1.22,0,1.07,0,1.77,0,1.59,0,2.63v9.9c0,1.26,0,2.48-.07,3.64a25.73,25.73,0,0,1-.34,3.3,12.28,12.28,0,0,1-.85,2.86,7.83,7.83,0,0,1-1.58,2.32,8.47,8.47,0,0,1-2.14,1.56,9.87,9.87,0,0,1-2.33.83,10.24,10.24,0,0,1-2.27.25,13.67,13.67,0,0,1-1.83-.11,8.62,8.62,0,0,1-2.09-.57,8.95,8.95,0,0,1-3.8-3,9.28,9.28,0,0,1-1.2-2.38,16.27,16.27,0,0,1-.75-3.34,35.73,35.73,0,0,1-.26-4.6V11.51c0-1,0-1.92,0-2.63s0-1.3,0-1.77,0-.88,0-1.22,0-.66,0-1A4.26,4.26,0,0,1,188.48,3a1.86,1.86,0,0,1,1.36-.84l.73-.11a5.8,5.8,0,0,1,.69,0,1.57,1.57,0,0,0,.58-.09.37.37,0,0,0,.2-.35.35.35,0,0,0-.26-.35,2.58,2.58,0,0,0-.82-.09l-1.52,0-1.71,0-1.6,0-1.19,0c-.51,0-1.14,0-1.92,0l-2.54-.07c-.91,0-1.8,0-2.68,0a2.35,2.35,0,0,0-.82.09.35.35,0,0,0-.26.35.36.36,0,0,0,.21.35,1.75,1.75,0,0,0,.62.09c.36,0,.71,0,1.07,0a5.4,5.4,0,0,1,.84.11,3,3,0,0,1,1.24.51,1.85,1.85,0,0,1,.64.9,5.16,5.16,0,0,1,.23,1.39c0,.3,0,.63,0,1s0,.75,0,1.22,0,1.07,0,1.77,0,1.59,0,2.63V22.44ZM130.41,38.77A20.49,20.49,0,0,0,133,38.6a14.3,14.3,0,0,0,2.63-.62,12,12,0,0,0,2.53-1.22,10.07,10.07,0,0,0,2.76-2.6,9.57,9.57,0,0,0,1.44-3,10.89,10.89,0,0,0,.41-3,12,12,0,0,0-.42-3.29,11.11,11.11,0,0,0-1.37-3,17.25,17.25,0,0,0-2.48-3,37.44,37.44,0,0,0-3.75-3.17l-1.37-1a28.07,28.07,0,0,1-3.15-2.7,8.07,8.07,0,0,1-1.6-2.2,5.18,5.18,0,0,1-.44-2.14,4.93,4.93,0,0,1,.7-2.61,4.75,4.75,0,0,1,2-1.78A7.11,7.11,0,0,1,134,2.67a7.59,7.59,0,0,1,2.63.42,5.63,5.63,0,0,1,1.7.95,6.11,6.11,0,0,1,1,1,5.7,5.7,0,0,1,.79,1.3,7.17,7.17,0,0,1,.38,1.17,3.82,3.82,0,0,1,.1.75,1.52,1.52,0,0,0,.11.66.4.4,0,0,0,.38.22c.2,0,.33-.11.42-.33a3.66,3.66,0,0,0,.12-1.13q0-1.9,0-3.08t.1-1.83q0-.65,0-1a.43.43,0,0,0-.18-.38,1.28,1.28,0,0,0-.51-.2,22.38,22.38,0,0,0-2.54-.55,26.34,26.34,0,0,0-4-.29,15.16,15.16,0,0,0-4.63.69A10.84,10.84,0,0,0,126.47,3,8.62,8.62,0,0,0,124.17,6a8.73,8.73,0,0,0-.81,3.72,10.65,10.65,0,0,0,.68,3.83,13.22,13.22,0,0,0,2.28,3.77,28.4,28.4,0,0,0,4.27,4L132.86,23a20.53,20.53,0,0,1,2.46,2.23,10.21,10.21,0,0,1,1.46,2,6.87,6.87,0,0,1,.69,1.83,7.79,7.79,0,0,1,.18,1.79,5,5,0,0,1-.41,2A5.5,5.5,0,0,1,136,34.61a6,6,0,0,1-2,1.31,8,8,0,0,1-2.89.51,8.7,8.7,0,0,1-2.92-.47,6.26,6.26,0,0,1-2.46-1.58,7,7,0,0,1-1.61-2.89,13,13,0,0,1-.31-1.32,6.75,6.75,0,0,1-.13-1.17,1.41,1.41,0,0,0-.08-.56.4.4,0,0,0-.41-.27.48.48,0,0,0-.42.36,3.19,3.19,0,0,0-.16.91c0,.2,0,.52-.06,1s-.06.95-.08,1.53-.06,1.22-.07,1.9,0,1.34,0,2a3.83,3.83,0,0,0,.06.83.91.91,0,0,0,.28.49,1.91,1.91,0,0,0,.59.34,14,14,0,0,0,3.29,1,22.42,22.42,0,0,0,3.85.29ZM74.5,23.9c0,1.59,0,3.06,0,4.42s0,2.56-.06,3.62-.09,1.93-.17,2.62a4.83,4.83,0,0,1-.4,1.68,1.37,1.37,0,0,1-1,.77c-.22,0-.47.1-.77.14a9,9,0,0,1-1,.06,1.26,1.26,0,0,0-.61.11.31.31,0,0,0-.17.29.39.39,0,0,0,.25.38,1.84,1.84,0,0,0,.73.11l1.63,0,1.76,0,1.61,0,1.16,0,1.85,0,2.66.07c1,0,2,0,3.12,0a1.7,1.7,0,0,0,.67-.11A.41.41,0,0,0,86,37.6a.32.32,0,0,0-.19-.29,1.26,1.26,0,0,0-.6-.11l-.82,0-.88-.07-.79-.1a2.29,2.29,0,0,1-1.13-.42,1.8,1.8,0,0,1-.59-.81,4.67,4.67,0,0,1-.24-1.17c-.07-.71-.11-1.59-.14-2.66s0-2.27,0-3.64,0-2.83,0-4.42V11.51c0-1,0-1.92,0-2.63s0-1.3,0-1.77,0-.88,0-1.22,0-.66,0-1A4.26,4.26,0,0,1,81.11,3a1.86,1.86,0,0,1,1.36-.84L83.24,2a6.49,6.49,0,0,1,.7,0,1.34,1.34,0,0,0,.57-.1.41.41,0,0,0,.21-.39c0-.15-.1-.25-.28-.31a2.6,2.6,0,0,0-.75-.08l-1.54,0-1.68,0-1.56,0-1.19,0-1.33,0-1.69,0L73,1.13l-1.58,0a3.39,3.39,0,0,0-.88.08c-.2.06-.29.16-.29.31a.41.41,0,0,0,.21.39A1.34,1.34,0,0,0,71,2a8.29,8.29,0,0,1,.9,0,5.77,5.77,0,0,1,.86.15,1.73,1.73,0,0,1,1.2.84,4,4,0,0,1,.46,1.9c0,.3,0,.63,0,1s0,.75,0,1.22,0,1.06,0,1.77,0,1.59,0,2.63V23.9Zm-56,11.89c.3.76.56,1.36.75,1.79a3.61,3.61,0,0,0,.55.93.7.7,0,0,0,.55.26.75.75,0,0,0,.6-.31,5.11,5.11,0,0,0,.65-1.11c.24-.53.58-1.26,1-2.2l1.47-3.37,2.2-5.06,2.84-6.5c.53-1.2,1-2.28,1.44-3.24s.84-1.87,1.21-2.7l1.08-2.4c.34-.77.69-1.55,1-2.35S34.65,7.89,35,7s.82-1.84,1.14-2.44A8.34,8.34,0,0,1,37,3.21a3,3,0,0,1,1.59-1.05A5,5,0,0,1,39.47,2a6.16,6.16,0,0,1,.64,0,1.57,1.57,0,0,0,.58-.09.37.37,0,0,0,.2-.35.36.36,0,0,0-.28-.35,2.32,2.32,0,0,0-.75-.09l-1.22,0-1.31,0-1.2,0-.86,0-1.07,0-1.79-.07c-.69,0-1.45,0-2.27,0a3.4,3.4,0,0,0-1,.1.4.4,0,0,0-.33.39.34.34,0,0,0,.25.33,2,2,0,0,0,.58.06c.33,0,.65,0,1,0a4.48,4.48,0,0,1,1,.2.84.84,0,0,1,.48.38,1,1,0,0,1,.15.55,3.58,3.58,0,0,1-.13.83,9,9,0,0,1-.31,1c-.17.47-.44,1.17-.79,2.08l-1.26,3.22-1.57,3.95L26.41,18.5l-1.68,4.21c-.55,1.36-1,2.61-1.49,3.74s-.83,2.1-1.13,2.88h-.2L13.5,7.13c-.34-.89-.62-1.65-.82-2.31a5.79,5.79,0,0,1-.31-1.46,1.47,1.47,0,0,1,.11-.59,1.13,1.13,0,0,1,.38-.44A1.81,1.81,0,0,1,13.67,2,7.7,7.7,0,0,1,14.77,2a1.35,1.35,0,0,0,.53-.09.37.37,0,0,0,.2-.35c0-.17-.12-.29-.34-.35a2.79,2.79,0,0,0-.78-.09c-.82,0-1.61,0-2.37,0l-2.09.07c-.62,0-1.14,0-1.56,0-.58,0-1.26,0-2,0L3.88,1.15c-.86,0-1.74,0-2.61,0a3.65,3.65,0,0,0-.91.07c-.23.06-.35.18-.36.37a.39.39,0,0,0,.13.33A.72.72,0,0,0,.59,2a7.82,7.82,0,0,1,.82,0,5.26,5.26,0,0,1,1.08.17A6.22,6.22,0,0,1,4,2.76,3.75,3.75,0,0,1,5.14,3.85,10.38,10.38,0,0,1,6.21,5.9L18.54,35.79ZM538.45,37a9.79,9.79,0,0,0,.55,1.38.66.66,0,0,0,.58.43.68.68,0,0,0,.51-.23,3.52,3.52,0,0,0,.51-.8c.2-.38.44-.91.74-1.57s.69-1.53,1.14-2.63,1-2.34,1.51-3.72,1.12-2.82,1.7-4.32l1.71-4.44c.56-1.46,1.08-2.81,1.55-4.08s.89-2.33,1.22-3.23l.71-1.89h.1l10.17,24.51a16.09,16.09,0,0,0,.85,1.88c.22.36.44.54.67.52a.69.69,0,0,0,.53-.22,2.2,2.2,0,0,0,.42-.73c.14-.33.29-.78.47-1.35.34-1.06.74-2.26,1.18-3.6l1.41-4.3,1.56-4.69c.53-1.6,1.07-3.19,1.6-4.76s1-3.1,1.53-4.54,1-2.79,1.38-4,.8-2.28,1.12-3.16.64-1.76.9-2.49a9.93,9.93,0,0,1,.83-1.78,2.1,2.1,0,0,1,1-.92,3.9,3.9,0,0,1,.87-.2,8.06,8.06,0,0,1,.84,0,1,1,0,0,0,.51-.11A.41.41,0,0,0,579,1.5a.32.32,0,0,0-.24-.31,1.92,1.92,0,0,0-.64-.08l-1.26,0-1.24,0-1,0-.55,0-.94,0-1.78-.07c-.71,0-1.5,0-2.37,0a2.57,2.57,0,0,0-.84.09.36.36,0,0,0-.29.35.36.36,0,0,0,.24.33,1.36,1.36,0,0,0,.59.11,4.25,4.25,0,0,1,1.46.2,1.32,1.32,0,0,1,.7.53,1.35,1.35,0,0,1,.19.73,7.78,7.78,0,0,1-.11,1.26,13.25,13.25,0,0,1-.37,1.58l-1,3.38-1.24,4.11c-.44,1.46-.87,2.92-1.31,4.38l-1.25,4.17c-.39,1.32-.73,2.49-1,3.51s-.51,1.8-.67,2.36h-.15L553.71,3.56c-.2-.52-.38-1-.53-1.29a3.32,3.32,0,0,0-.42-.77.58.58,0,0,0-.46-.25c-.19,0-.38.11-.57.37A6,6,0,0,0,551.07,3l-9.49,25.52h-.15c-.13-.4-.33-1-.58-1.84s-.56-1.8-.91-2.92-.7-2.3-1.08-3.56-.77-2.53-1.16-3.81l-1.08-3.62c-.34-1.15-.64-2.16-.89-3s-.44-1.56-.56-2c-.3-1.09-.55-2-.76-2.8a8.4,8.4,0,0,1-.32-1.65,1.63,1.63,0,0,1,.11-.67.79.79,0,0,1,.43-.41,1.44,1.44,0,0,1,.6-.17,4.13,4.13,0,0,1,.63,0,1.81,1.81,0,0,0,.63-.07.37.37,0,0,0,.25-.37q0-.44-1-.44c-1,0-1.81,0-2.57,0s-1.39,0-1.89.07l-1,0-.72,0-1.33,0-1.73,0-1.9,0a2.28,2.28,0,0,0-.79.09.36.36,0,0,0-.28.35.36.36,0,0,0,.21.37,1.4,1.4,0,0,0,.57.07,5.59,5.59,0,0,1,.59,0,6.44,6.44,0,0,1,.73.14,2.44,2.44,0,0,1,.64.27,3.35,3.35,0,0,1,.95,1.24,16.15,16.15,0,0,1,.86,2.23L538.45,37ZM417.23,15.3V11.51c0-1,0-1.92,0-2.63s0-1.3,0-1.77,0-.88,0-1.22,0-.66,0-1A4.26,4.26,0,0,1,417.78,3a1.86,1.86,0,0,1,1.36-.84c.3,0,.63-.09,1-.11s.66,0,.94,0a1.91,1.91,0,0,0,.66-.09.36.36,0,0,0,.22-.35.36.36,0,0,0-.26-.35,2.3,2.3,0,0,0-.77-.09l-1.68,0-1.92,0-1.79,0-1.26,0-1.28,0-1.7,0-1.88,0-1.83,0a2.35,2.35,0,0,0-.82.09.35.35,0,0,0-.26.35.36.36,0,0,0,.21.35,1.75,1.75,0,0,0,.62.09c.32,0,.62,0,.9,0a4.79,4.79,0,0,1,.72.11,3,3,0,0,1,1.24.51,1.85,1.85,0,0,1,.64.9A5.16,5.16,0,0,1,411,4.92c0,.3,0,.63,0,1s0,.75,0,1.22,0,1.07,0,1.77,0,1.59,0,2.63V23.9c0,1.51,0,2.92,0,4.25s0,2.5-.07,3.55-.09,1.92-.17,2.62a9.79,9.79,0,0,1-.24,1.28,2.56,2.56,0,0,1-.42.94,1.2,1.2,0,0,1-.76.47c-.22,0-.47.1-.77.14a9,9,0,0,1-1,.06,1.26,1.26,0,0,0-.61.11.31.31,0,0,0-.17.29.39.39,0,0,0,.25.38,1.84,1.84,0,0,0,.73.11l1.63,0c.6,0,1.17,0,1.75,0s1.14,0,1.63,0h1.16L416,38l1.94,0,2.08.08,3.64.09c1.34,0,2.89.06,4.63.06a15.17,15.17,0,0,0,1.52-.06,2.49,2.49,0,0,0,.86-.2,1,1,0,0,0,.46-.4,2.55,2.55,0,0,0,.24-.66c.08-.29.16-.65.23-1.08s.14-.88.2-1.36.12-.94.16-1.39.08-.82.11-1.15,0-.54,0-.65a1.81,1.81,0,0,0-.07-.64.31.31,0,0,0-.33-.2.43.43,0,0,0-.4.2,1.27,1.27,0,0,0-.14.53,4.63,4.63,0,0,1-.24,1,6.85,6.85,0,0,1-.46,1.06,4.16,4.16,0,0,1-.57.84,3.59,3.59,0,0,1-1.45.95,7,7,0,0,1-1.91.36c-.71,0-1.5.07-2.36.07-1.26,0-2.27,0-3-.11a7.85,7.85,0,0,1-1.81-.36,3,3,0,0,1-1.06-.6,3,3,0,0,1-.73-1.73,25.11,25.11,0,0,1-.26-3.47q0-2.19,0-5.32V15.3ZM269.07,29.72,271.44,36a.86.86,0,0,1,0,.75.71.71,0,0,1-.44.38,1.29,1.29,0,0,0-.52.13.32.32,0,0,0-.16.31c0,.16.14.26.41.3a9.26,9.26,0,0,0,1.06.09c1.31,0,2.56.06,3.74.07l3.2,0H281c.6,0,1.06,0,1.39,0a1.8,1.8,0,0,0,.69-.15.32.32,0,0,0,.18-.3.32.32,0,0,0-.17-.33,1.08,1.08,0,0,0-.46-.07c-.29,0-.62,0-1,0a10.75,10.75,0,0,1-1.08-.16,4.06,4.06,0,0,1-.85-.34,4.41,4.41,0,0,1-1-.8,9.07,9.07,0,0,1-1.15-1.57,22,22,0,0,1-1.31-2.64q-.59-1.41-1.37-3.31t-1.68-4.13c-.6-1.49-1.22-3-1.86-4.61l-1.89-4.75c-.63-1.57-1.23-3.07-1.8-4.52l-1.58-4c-.47-1.19-.88-2.2-1.21-3s-.58-1.42-.73-1.76a6.51,6.51,0,0,0-.63-1.21.73.73,0,0,0-.6-.36c-.24,0-.45.14-.64.45A9.1,9.1,0,0,0,261.56,2L249.28,32.68a15.74,15.74,0,0,1-1,2.16A5,5,0,0,1,247,36.35a3.8,3.8,0,0,1-1.86.73l-.74.07c-.29,0-.55,0-.77,0a.81.81,0,0,0-.44.09.32.32,0,0,0-.15.3.39.39,0,0,0,.23.39,1.85,1.85,0,0,0,.7.1l1.9,0,1.74,0,1.36,0,.77,0c.51,0,1.07,0,1.67,0l1.81.06c.61,0,1.17,0,1.7,0a1.56,1.56,0,0,0,.62-.1.41.41,0,0,0,.21-.39.29.29,0,0,0-.15-.3,1.24,1.24,0,0,0-.59-.09h-.73a2.27,2.27,0,0,1-1.55-.42,1.38,1.38,0,0,1-.41-1.09,4.87,4.87,0,0,1,.11-.91v0A23.36,23.36,0,0,1,265.9,21.23l3.17,8.49Zm-13.43-3.91,0-.13a1.27,1.27,0,0,1,.07-.17l2.43-6.43,3.22-8.61a1.13,1.13,0,0,1,.11-.29.24.24,0,0,1,.18-.15c.07,0,.12.06.16.15a2.68,2.68,0,0,1,.08.29l2.78,7.63h0l1.14,3.06a14.46,14.46,0,0,0-10,4.41l-.24.24Zm230.3,3.91L488.31,36a.86.86,0,0,1,0,.75.71.71,0,0,1-.44.38,1.3,1.3,0,0,0-.52.13.32.32,0,0,0-.16.31c0,.16.14.26.41.3a9.26,9.26,0,0,0,1.06.09c1.31,0,2.56.06,3.74.07l3.2,0h2.31c.59,0,1.06,0,1.39,0a1.8,1.8,0,0,0,.68-.15.32.32,0,0,0,.18-.3.32.32,0,0,0-.17-.33,1.08,1.08,0,0,0-.46-.07c-.29,0-.62,0-1,0a10.74,10.74,0,0,1-1.08-.16,4.07,4.07,0,0,1-.85-.34,4.4,4.4,0,0,1-1-.8,9.1,9.1,0,0,1-1.15-1.57,22,22,0,0,1-1.31-2.64q-.59-1.41-1.37-3.31t-1.68-4.13c-.6-1.49-1.22-3-1.86-4.61l-1.89-4.75c-.63-1.57-1.23-3.07-1.8-4.52l-1.58-4c-.47-1.19-.88-2.2-1.22-3s-.58-1.42-.73-1.76a6.55,6.55,0,0,0-.63-1.21.74.74,0,0,0-.6-.36c-.24,0-.45.14-.64.45A9.1,9.1,0,0,0,478.43,2L466.15,32.68a15.82,15.82,0,0,1-1,2.16,5.05,5.05,0,0,1-1.29,1.52,3.8,3.8,0,0,1-1.86.73l-.74.07c-.28,0-.55,0-.77,0a.81.81,0,0,0-.44.09.32.32,0,0,0-.15.3.39.39,0,0,0,.23.39,1.86,1.86,0,0,0,.7.1l1.9,0,1.74,0,1.36,0,.77,0c.51,0,1.07,0,1.67,0l1.81.06c.61,0,1.17,0,1.7,0a1.56,1.56,0,0,0,.62-.1.41.41,0,0,0,.21-.39.29.29,0,0,0-.15-.3,1.24,1.24,0,0,0-.59-.09h-.73a2.27,2.27,0,0,1-1.55-.42,1.39,1.39,0,0,1-.41-1.09,4.88,4.88,0,0,1,.11-.91v0a23.36,23.36,0,0,1,13.46-13.56l3.17,8.49Zm-13.43-3.91,0-.13a1.23,1.23,0,0,1,.07-.17l2.43-6.43,3.22-8.61a1.13,1.13,0,0,1,.11-.29.24.24,0,0,1,.18-.15c.07,0,.12.06.16.15a2.52,2.52,0,0,1,.08.29l2.78,7.63h0l1.14,3.06a14.46,14.46,0,0,0-10,4.41l-.24.24Z"/></g></g></g></svg>